<svg width="2000" height="1400" xmlns="http://www.w3.org/2000/svg"><defs><linearGradient id="a" gradientTransform="rotate(90)"><stop offset="5%" stop-color="#79d4e3"/><stop offset="95%" stop-color="#9adeea"/></linearGradient><linearGradient id="b" gradientTransform="rotate(90)"><stop offset="5%" stop-color="#88d7e0"/><stop offset="95%" stop-color="#a5e1e7"/></linearGradient><linearGradient id="c" gradientTransform="rotate(90)"><stop offset="5%" stop-color="#98d9dc"/><stop offset="95%" stop-color="#b1e2e4"/></linearGradient><linearGradient id="d" gradientTransform="rotate(90)"><stop offset="5%" stop-color="#a7dbd8"/><stop offset="95%" stop-color="#bde4e1"/></linearGradient><linearGradient id="e" gradientTransform="rotate(90)"><stop offset="5%" stop-color="#b5ddd5"/><stop offset="95%" stop-color="#c7e5df"/></linearGradient><linearGradient id="f" gradientTransform="rotate(90)"><stop offset="5%" stop-color="#c4e0d2"/><stop offset="95%" stop-color="#d2e7dd"/></linearGradient><linearGradient id="g" gradientTransform="rotate(90)"><stop offset="5%" stop-color="#d2e2cf"/><stop offset="95%" stop-color="#dde9db"/></linearGradient><linearGradient id="h" gradientTransform="rotate(90)"><stop offset="5%" stop-color="#e0e4cc"/><stop offset="95%" stop-color="#e7ead8"/></linearGradient></defs><path fill="#69d2e7" d="M0 0h2000v1400H0z"/><path d="M0 155c122.252-11.06 244.505-22.12 349-21 104.495 1.12 191.233 14.42 302 26s245.562 21.437 368 15c122.438-6.437 232.52-29.169 329-38 96.48-8.831 179.36-3.762 305 7 125.64 10.762 294.04 27.218 359 30 64.96 2.782 26.48-8.109 28-19l-40 1245H0Z" fill="url(#a)"/><path d="M0 311c104.806 9.484 209.612 18.968 320 21s226.357-3.388 342-5 230.96.585 348 2c117.04 1.415 235.805 2.05 340-1s193.822-9.783 310-19 258.908-20.92 320-21c61.092-.08 40.546 11.46 60 23l-40 1089H0Z" fill="url(#b)"/><path d="M0 466c102.011 8.045 204.022 16.09 310 20 105.978 3.91 215.921 3.687 340 0 124.079-3.687 262.292-10.839 371-13 108.708-2.161 187.911.668 294-3s239.062-13.834 370-15c130.938-1.166 259.84 6.667 312 10 52.16 3.333 27.58 2.167 43 1l-40 934H0Z" fill="url(#c)"/><path d="M0 622c111.201 10.997 222.402 21.994 335 17 112.598-4.994 226.592-25.978 340-28 113.408-2.022 226.231 14.92 340 25s228.484 13.3 328 7c99.516-6.3 183.831-22.12 310-21 126.169 1.12 294.191 19.177 359 22 64.809 2.823 26.404-9.588 28-22l-40 778H0Z" fill="url(#d)"/><path d="M0 777c111.147 2.038 222.294 4.077 338-1 115.706-5.077 235.972-17.27 340-14 104.028 3.27 191.82 22 306 19s254.75-27.732 370-26c115.25 1.732 205.183 29.928 329 39 123.817 9.072 281.52-.98 340-7 58.48-6.02 17.74-8.01 17-10l-40 623H0Z" fill="url(#e)"/><path d="M0 933c99.172 8.83 198.343 17.66 314 19 115.657 1.34 247.798-4.81 360-15 112.202-10.19 204.463-24.421 311-23 106.537 1.421 227.35 18.494 344 29s229.136 14.444 354 5 262.104-32.27 317-37c54.896-4.73 27.448 8.635 40 22l-40 467H0Z" fill="url(#f)"/><path d="M0 1088c116.413-3.12 232.826-6.24 340-11s205.108-11.16 317-7 237.742 18.883 349 25c111.258 6.117 207.925 3.63 314-1 106.075-4.63 221.559-11.4 349-9 127.441 2.4 266.84 13.971 324 16 57.16 2.029 32.08-5.486 47-13l-40 312H0Z" fill="url(#g)"/><path d="M0 1244c96.583-2.746 193.166-5.492 310-5s253.92 4.223 366 2c112.08-2.223 199.154-10.4 306-16s233.464-8.625 349-3 219.99 19.899 346 21c126.01 1.101 273.574-10.971 331-13 57.426-2.029 24.713 5.986 32 14l-40 156H0Z" fill="url(#h)"/></svg>