<svg width="2000" height="1400" xmlns="http://www.w3.org/2000/svg"><defs><linearGradient id="a" gradientTransform="rotate(90)"><stop offset="5%" stop-color="#c8b770"/><stop offset="95%" stop-color="#d5c993"/></linearGradient><linearGradient id="b" gradientTransform="rotate(90)"><stop offset="5%" stop-color="#b3b883"/><stop offset="95%" stop-color="#c6c9a2"/></linearGradient><linearGradient id="c" gradientTransform="rotate(90)"><stop offset="5%" stop-color="#aab991"/><stop offset="95%" stop-color="#bfcaac"/></linearGradient><linearGradient id="d" gradientTransform="rotate(90)"><stop offset="5%" stop-color="#bbbe94"/><stop offset="95%" stop-color="#ccceae"/></linearGradient><linearGradient id="e" gradientTransform="rotate(90)"><stop offset="5%" stop-color="#cbc296"/><stop offset="95%" stop-color="#d8d1b0"/></linearGradient><linearGradient id="f" gradientTransform="rotate(90)"><stop offset="5%" stop-color="#c7bf99"/><stop offset="95%" stop-color="#d5cfb2"/></linearGradient><linearGradient id="g" gradientTransform="rotate(90)"><stop offset="5%" stop-color="#b7b89c"/><stop offset="95%" stop-color="#c9c9b4"/></linearGradient><linearGradient id="h" gradientTransform="rotate(90)"><stop offset="5%" stop-color="#a8b19f"/><stop offset="95%" stop-color="#bdc4b7"/></linearGradient></defs><path fill="#deb75c" d="M0 0h2000v1400H0z"/><path d="M0 155c110.031-4.636 220.062-9.272 324-13 103.938-3.728 201.782-6.547 320 2 118.218 8.547 256.81 28.459 372 32 115.19 3.541 206.979-9.288 303-13 96.021-3.712 196.275 1.693 327-1s291.921-13.484 356-16c64.079-2.516 31.04 3.242 38 9l-40 1245H0Z" fill="url(#a)"/><path d="M0 311c123.2 10.278 246.401 20.557 349 14 102.599-6.557 184.596-29.948 294-34s246.213 11.235 364 13c117.787 1.765 216.551-9.99 319-14 102.449-4.01 208.582-.272 334 1s270.12.078 330 3c59.88 2.922 34.94 9.961 50 17l-40 1089H0Z" fill="url(#b)"/><path d="M0 466c121.688-4.361 243.377-8.723 356-15 112.623-6.277 216.182-14.47 328-7 111.818 7.47 231.896 30.604 336 35 104.104 4.396 192.234-9.945 294-15 101.766-5.055 217.168-.822 353 6s292.095 16.235 351 16c58.905-.235 20.453-10.117 22-20l-40 934H0Z" fill="url(#c)"/><path d="M0 622c102.443-7.044 204.885-14.087 319-14 114.115.087 239.901 7.305 351 6 111.099-1.305 207.51-11.134 317-7 109.49 4.134 232.06 22.232 344 26 111.94 3.768 213.253-6.793 333-12 119.747-5.207 257.928-5.06 317-4 59.072 1.06 39.036 3.03 59 5l-40 778H0Z" fill="url(#d)"/><path d="M0 777c105.393 1.84 210.786 3.68 324 4 113.214.32 234.25-.88 342 0s202.215 3.838 312 5 234.89.528 342-7c107.11-7.528 196.222-21.95 321-22 124.778-.05 285.222 14.271 351 20 65.778 5.729 36.889 2.864 48 0l-40 623H0Z" fill="url(#e)"/><path d="M0 933c118.35 6.405 236.701 12.81 344 16 107.299 3.19 203.546 3.167 316 1 112.454-2.167 241.116-6.479 353-10 111.884-3.521 206.99-6.253 314-5 107.01 1.253 225.926 6.491 358 7 132.074.509 277.307-3.712 332-6 54.693-2.288 18.847-2.644 23-3l-40 467H0Z" fill="url(#f)"/><path d="M0 1088c116.656 3.33 233.313 6.659 337 6 103.687-.659 194.405-5.306 309-4s253.065 8.565 366 7c112.935-1.565 200.333-11.956 302-15 101.667-3.044 217.603 1.257 355 6s296.256 9.926 355 10c58.744.074 17.372-4.963 16-10l-40 312H0Z" fill="url(#g)"/><path d="M0 1244c107.633-13.672 215.265-27.343 329-21 113.735 6.343 233.571 32.701 342 40 108.429 7.299 205.45-4.461 312-6 106.55-1.539 222.632 7.144 329 9 106.368 1.856 203.022-3.116 333-3 129.978.116 293.28 5.319 358 3 64.72-2.319 30.86-12.16 37-22l-40 156H0Z" fill="url(#h)"/></svg>