<svg width="2000" height="1400" xmlns="http://www.w3.org/2000/svg"><defs><linearGradient id="a" gradientTransform="rotate(90)"><stop offset="5%" stop-color="#eca96b"/><stop offset="95%" stop-color="#f0be90"/></linearGradient><linearGradient id="b" gradientTransform="rotate(90)"><stop offset="5%" stop-color="#e5cda5"/><stop offset="95%" stop-color="#ebd9bb"/></linearGradient><linearGradient id="c" gradientTransform="rotate(90)"><stop offset="5%" stop-color="#d9e3ce"/><stop offset="95%" stop-color="#e2eada"/></linearGradient><linearGradient id="d" gradientTransform="rotate(90)"><stop offset="5%" stop-color="#c4e0d2"/><stop offset="95%" stop-color="#d2e7dd"/></linearGradient><linearGradient id="e" gradientTransform="rotate(90)"><stop offset="5%" stop-color="#aedcd7"/><stop offset="95%" stop-color="#c2e4e1"/></linearGradient><linearGradient id="f" gradientTransform="rotate(90)"><stop offset="5%" stop-color="#98d9dc"/><stop offset="95%" stop-color="#b1e2e4"/></linearGradient><linearGradient id="g" gradientTransform="rotate(90)"><stop offset="5%" stop-color="#80d5e1"/><stop offset="95%" stop-color="#9fdfe8"/></linearGradient><linearGradient id="h" gradientTransform="rotate(90)"><stop offset="5%" stop-color="#69d2e7"/><stop offset="95%" stop-color="#8edded"/></linearGradient></defs><path fill="#f38630" d="M0 0h2000v1400H0z"/><path d="M0 155c98.553 4.338 197.105 8.676 311 11 113.895 2.324 243.132 2.634 363-5s230.368-23.211 337-28c106.632-4.789 209.396 1.211 311 5 101.604 3.789 202.047 5.366 334 5 131.953-.366 295.415-2.676 358-1 62.585 1.676 24.292 7.338 26 13l-40 1245H0Z" fill="url(#a)"/><path d="M0 311c106.76-3.774 213.522-7.548 321-10 107.478-2.452 215.674-3.582 330 3s234.78 20.877 346 20c111.22-.877 213.203-16.926 318-17 104.797-.074 212.407 15.826 338 23 125.593 7.174 269.17 5.621 330 1 60.83-4.621 38.915-12.31 57-20l-40 1089H0Z" fill="url(#b)"/><path d="M0 466c115.311 5.674 230.622 11.349 342 8 111.378-3.349 218.822-15.72 332-13 113.178 2.72 232.09 20.533 343 16 110.91-4.533 213.821-31.41 319-28s212.625 37.11 337 38c124.375.89 265.679-31.032 323-40 57.321-8.968 30.66 5.016 44 19l-40 934H0Z" fill="url(#c)"/><path d="M0 622c122.95 8.991 245.9 17.983 356 14 110.1-3.983 207.352-20.94 312-20 104.648.94 216.693 19.777 336 16 119.307-3.777 245.876-30.167 348-32 102.124-1.833 179.803 20.891 303 32 123.197 11.109 291.914 10.603 357 7 65.086-3.603 26.543-10.301 28-17l-40 778H0Z" fill="url(#d)"/><path d="M0 777c102.168-.398 204.336-.796 323-1 118.664-.204 253.825-.215 361-3 107.175-2.785 186.365-8.343 299-9 112.635-.657 258.717 3.587 373 2 114.283-1.587 196.769-9.004 313-3s266.209 25.43 327 30 32.396-5.715 44-16l-40 623H0Z" fill="url(#e)"/><path d="M0 933c100.944 5.178 201.887 10.357 316 11 114.113.643 241.395-3.248 349-12 107.605-8.752 195.532-22.364 310-15 114.468 7.364 255.476 35.706 372 37 116.524 1.294 208.564-24.46 328-32 119.436-7.54 266.267 3.131 325 8 58.733 4.869 29.366 3.934 40 3l-40 467H0Z" fill="url(#f)"/><path d="M0 1088c101.9 4.733 203.798 9.466 321 7 117.202-2.466 249.705-12.132 369-9 119.295 3.132 225.38 19.06 330 25 104.62 5.94 207.774 1.891 305-10s188.522-31.625 320-28 303.136 30.607 369 37c65.864 6.393 25.932-7.804 26-22l-40 312H0Z" fill="url(#g)"/><path d="M0 1244c108.319-.487 216.638-.974 328-2s225.767-2.59 343-5 237.295-5.665 346-4c108.705 1.665 206.055 8.25 306 14s202.485 10.663 328 11c125.515.337 274.004-3.904 336-7 61.996-3.096 37.498-5.048 53-7l-40 156H0Z" fill="url(#h)"/></svg>