<svg width="2000" height="1400" xmlns="http://www.w3.org/2000/svg"><defs><linearGradient id="a" gradientTransform="rotate(90)"><stop offset="5%" stop-color="#b39bde"/><stop offset="95%" stop-color="#c6b4e6"/></linearGradient><linearGradient id="b" gradientTransform="rotate(90)"><stop offset="5%" stop-color="#9a8fe2"/><stop offset="95%" stop-color="#b3abe9"/></linearGradient><linearGradient id="c" gradientTransform="rotate(90)"><stop offset="5%" stop-color="#8182e5"/><stop offset="95%" stop-color="#a0a1eb"/></linearGradient><linearGradient id="d" gradientTransform="rotate(90)"><stop offset="5%" stop-color="#6876e8"/><stop offset="95%" stop-color="#8d98ed"/></linearGradient><linearGradient id="e" gradientTransform="rotate(90)"><stop offset="5%" stop-color="#788ae5"/><stop offset="95%" stop-color="#99a7eb"/></linearGradient><linearGradient id="f" gradientTransform="rotate(90)"><stop offset="5%" stop-color="#889fe2"/><stop offset="95%" stop-color="#a5b7e9"/></linearGradient><linearGradient id="g" gradientTransform="rotate(90)"><stop offset="5%" stop-color="#97b3de"/><stop offset="95%" stop-color="#b1c6e6"/></linearGradient><linearGradient id="h" gradientTransform="rotate(90)"><stop offset="5%" stop-color="#a7c7db"/><stop offset="95%" stop-color="#bdd5e4"/></linearGradient></defs><path fill="#cca7db" d="M0 0h2000v1400H0z"/><path d="M0 155c110.476 4.195 220.953 8.39 332 8 111.047-.39 222.666-5.366 331-9 108.334-3.634 213.385-5.927 333-1 119.615 4.927 253.794 17.073 357 17 103.206-.073 175.44-12.366 292-11 116.56 1.366 277.446 16.39 344 18 66.554 1.61 38.777-10.195 51-22l-40 1245H0Z" fill="url(#a)"/><path d="M0 311c117.43-7.042 234.859-14.085 342-16 107.141-1.915 203.995 1.296 307 2s212.162-1.099 333-1c120.838.099 253.359 2.099 367 6 113.641 3.901 208.403 9.704 324 14 115.597 4.296 252.028 7.085 310 6 57.972-1.085 37.486-6.042 57-11l-40 1089H0Z" fill="url(#b)"/><path d="M0 466c98.823-2.585 197.647-5.17 308 1 110.353 6.17 232.237 21.093 343 17s210.406-27.202 324-32c113.594-4.798 241.139 8.714 349 7 107.861-1.714 196.04-18.654 318-14 121.96 4.654 277.703 30.901 343 38 65.297 7.099 40.149-4.95 55-17l-40 934H0Z" fill="url(#c)"/><path d="M0 622c123.933-4.881 247.866-9.763 353-8 105.134 1.763 191.47 10.17 302 6s245.255-20.919 362-19c116.745 1.919 215.509 22.504 320 23 104.491.496 214.71-19.097 339-17 124.29 2.097 262.655 25.885 319 32 56.345 6.115 30.673-5.442 45-17l-40 778H0Z" fill="url(#d)"/><path d="M0 777c105.778 7.013 211.555 14.025 330 19s249.557 7.911 357 1c107.443-6.911 191.218-23.67 300-30 108.782-6.33 242.57-2.233 361-1s221.5-.399 335 6 237.428 20.828 292 23c54.572 2.172 39.786-7.914 65-18l-40 623H0Z" fill="url(#e)"/><path d="M0 933c93.837 2.614 187.675 5.227 308 6 120.325.773 267.138-.295 380-1 112.862-.705 191.772-1.048 298 5 106.228 6.048 239.772 18.487 347 13 107.228-5.487 188.138-28.9 314-32 125.862-3.1 296.675 14.114 363 19 66.325 4.886 28.163-2.557 30-10l-40 467H0Z" fill="url(#f)"/><path d="M0 1088c114.649 7.284 229.298 14.568 339 21s214.458 12.011 318 2 205.869-35.614 321-38c115.131-2.386 243.066 18.443 350 19 106.934.557 192.867-19.158 317-27 124.133-7.842 286.467-3.812 352 2 65.533 5.812 34.267 13.406 43 21l-40 312H0Z" fill="url(#g)"/><path d="M0 1244c106.314-.854 212.627-1.708 320-1 107.373.708 215.805 2.978 335 4 119.195 1.022 249.152.796 361-4 111.848-4.796 205.588-14.162 307-18 101.412-3.838 210.495-2.149 336 5s267.43 19.757 327 23c59.57 3.243 36.785-2.878 54-9l-40 156H0Z" fill="url(#h)"/></svg>